<svg version="1.1" xmlns="http://www.w3.org/2000/svg" viewBox="0 0 1446.9575805664062 705.1021118164062" width="1446.9575805664062" height="705.1021118164062">
  <!-- svg-source:excalidraw -->
  
  <defs>
    <style>
      @font-face {
        font-family: "Virgil";
        src: url("https://excalidraw.com/Virgil.woff2");
      }
      @font-face {
        font-family: "Cascadia";
        src: url("https://excalidraw.com/Cascadia.woff2");
      }
    </style>
  </defs>
  <rect x="0" y="0" width="1446.9575805664062" height="705.1021118164062" fill="#ffffff"></rect><g transform="translate(616.4541625976562 10) rotate(0 102.5 37.5)"><text x="0" y="18" font-family="Virgil, Segoe UI Emoji" font-size="20px" fill="#000000" text-anchor="start" style="white-space: pre;" direction="ltr">Testing Restful- API</text><text x="0" y="43" font-family="Virgil, Segoe UI Emoji" font-size="20px" fill="#000000" text-anchor="start" style="white-space: pre;" direction="ltr"></text><text x="0" y="68" font-family="Virgil, Segoe UI Emoji" font-size="20px" fill="#000000" text-anchor="start" style="white-space: pre;" direction="ltr"></text></g><g transform="translate(569.5889282226562 91.04037475585938) rotate(0 46 12.5)"><text x="0" y="18" font-family="Virgil, Segoe UI Emoji" font-size="20px" fill="#000000" text-anchor="start" style="white-space: pre;" direction="ltr">Unit Test</text></g><g transform="translate(618.999755859375 123.08489990234375) rotate(0 84.5 25)"><text x="0" y="18" font-family="Virgil, Segoe UI Emoji" font-size="20px" fill="#000000" text-anchor="start" style="white-space: pre;" direction="ltr">- Client Service</text><text x="0" y="43" font-family="Virgil, Segoe UI Emoji" font-size="20px" fill="#000000" text-anchor="start" style="white-space: pre;" direction="ltr">- Client Reposity</text></g><g transform="translate(631.8856506347656 201.92135620117188) rotate(0 177 75)"><text x="0" y="18" font-family="Virgil, Segoe UI Emoji" font-size="20px" fill="#000000" text-anchor="start" style="white-space: pre;" direction="ltr">- getAllClients(Client) : List&lt;Client&gt;</text><text x="0" y="43" font-family="Virgil, Segoe UI Emoji" font-size="20px" fill="#000000" text-anchor="start" style="white-space: pre;" direction="ltr">- addClient(Client): void</text><text x="0" y="68" font-family="Virgil, Segoe UI Emoji" font-size="20px" fill="#000000" text-anchor="start" style="white-space: pre;" direction="ltr">- deleteClientById(Client): void</text><text x="0" y="93" font-family="Virgil, Segoe UI Emoji" font-size="20px" fill="#000000" text-anchor="start" style="white-space: pre;" direction="ltr">- getClientById(Client): &lt;Client&gt;</text><text x="0" y="118" font-family="Virgil, Segoe UI Emoji" font-size="20px" fill="#000000" text-anchor="start" style="white-space: pre;" direction="ltr">- updateClientById(Client): void</text><text x="0" y="143" font-family="Virgil, Segoe UI Emoji" font-size="20px" fill="#000000" text-anchor="start" style="white-space: pre;" direction="ltr"></text></g><g transform="translate(586.8065795898438 119.04791259765625) rotate(0 213.8251953125 136.1121826171875)"><path d="M-0.6528142721629605 0.6662204061054596 C117.3965243636772 -1.6224606312334227, 233.80466042604485 -1.3667860255384128, 427.62782937955023 -0.11279903508373221 M0.32188651604029656 0.07309792959517575 C119.7710571493353 0.36928251899268466, 238.7209196170965 0.5795168347134656, 427.63394606932883 -0.51302155123771 M428.3094807390909 1.4127103405176682 C426.8894446887149 107.62776851757285, 427.37794996572745 214.89105410366332, 426.56408704414514 273.63476462111123 M427.00740298577836 -0.6022122423220385 C425.86477940749415 105.34679337695177, 425.30985108847966 209.77118156657826, 428.16808613246275 272.91262598137 M426.94980539023567 271.8290343072944 C298.3465285111879 272.7242772440567, 169.68377048267433 274.3062014836326, -0.5543046994145403 272.51763089196976 M427.67968519968275 272.5532704359301 C299.1515722806036 270.54074434284115, 171.30508895061553 271.2817698070226, 0.14204667453774497 272.58658749273854 M-0.6332279719884187 271.85843147750757 C-0.05187779485016808 172.0572780385862, -1.9915898365562215 72.10936702277003, 1.552474605131461 -0.9670011117403958 M0.19731289637506694 271.6793365171461 C1.4478011600381773 179.80924377006312, 0.8894662368850947 85.92257891588073, 0.2469092785660304 0.1793219788227107" stroke="#000000" stroke-width="1" fill="none"></path></g><g transform="translate(616.8433227539062 422.0323791503906) rotate(0 105 37.5)"><text x="0" y="18" font-family="Virgil, Segoe UI Emoji" font-size="20px" fill="#000000" text-anchor="start" style="white-space: pre;" direction="ltr">- Account Service</text><text x="0" y="43" font-family="Virgil, Segoe UI Emoji" font-size="20px" fill="#000000" text-anchor="start" style="white-space: pre;" direction="ltr">- Account Repository</text><text x="0" y="68" font-family="Virgil, Segoe UI Emoji" font-size="20px" fill="#000000" text-anchor="start" style="white-space: pre;" direction="ltr"></text></g><g transform="translate(711.164794921875 508.9671630859375) rotate(0 9 12.5)"><text x="0" y="18" font-family="Virgil, Segoe UI Emoji" font-size="20px" fill="#000000" text-anchor="start" style="white-space: pre;" direction="ltr">- </text></g><g transform="translate(651.1449584960938 491.38397216796875) rotate(0 371.5 87.5)"><text x="0" y="18" font-family="Virgil, Segoe UI Emoji" font-size="20px" fill="#000000" text-anchor="start" style="white-space: pre;" direction="ltr">- getAccountsByClientId(Account): List&lt;Account&gt;</text><text x="0" y="43" font-family="Virgil, Segoe UI Emoji" font-size="20px" fill="#000000" text-anchor="start" style="white-space: pre;" direction="ltr">- getAccountsByClientId(Account WHERE</text><text x="0" y="68" font-family="Virgil, Segoe UI Emoji" font-size="20px" fill="#000000" text-anchor="start" style="white-space: pre;" direction="ltr">   balance &gt;= 400 &amp;&amp; balance &lt;= 2000): List&lt;Account&gt;</text><text x="0" y="93" font-family="Virgil, Segoe UI Emoji" font-size="20px" fill="#000000" text-anchor="start" style="white-space: pre;" direction="ltr">- getACcountById(Account WHERE account.id ==client.accountid): &lt;Account&gt;</text><text x="0" y="118" font-family="Virgil, Segoe UI Emoji" font-size="20px" fill="#000000" text-anchor="start" style="white-space: pre;" direction="ltr">- updateAccountById(Account WHERE account.id == client.accountid): void</text><text x="0" y="143" font-family="Virgil, Segoe UI Emoji" font-size="20px" fill="#000000" text-anchor="start" style="white-space: pre;" direction="ltr">- deletAccountById(Account WHERE account.id == client.accountid): void</text><text x="0" y="168" font-family="Virgil, Segoe UI Emoji" font-size="20px" fill="#000000" text-anchor="start" style="white-space: pre;" direction="ltr"></text></g><g transform="translate(588.2454223632812 407.45880126953125) rotate(0 424.3560791015625 143.8216552734375)"><path d="M0.08437275215983392 0.757119507342577 C328.9386266103785 -3.1111980226481366, 657.784621649017 -2.495736887737553, 848.1754477672279 -0.34945118948817255 M-0.3524296667426825 -0.13244333602488043 C301.09370314556406 2.5431280876754725, 603.224366978989 2.070103063738247, 848.4136419031769 -0.08031479455530643 M849.8203447540909 0.24493878203326586 C846.2450890012367 81.4626670067703, 845.4792069285597 163.20857759775367, 848.9499086289316 286.87077583023336 M848.338191942732 -0.580083177560293 C848.15701723564 74.14948575231833, 848.9215316783686 149.91433574687565, 848.7088875111101 288.08066359411396 M848.8210847787559 288.03804282620547 C646.760783491275 284.92878711857134, 445.329088618589 284.8841454092436, 0.2634400062263012 287.3558510966599 M848.6810366008431 287.7724467959255 C674.1444707043646 286.5391859669328, 499.8150188368169 286.37425191589597, 0.17841386534273626 287.85900450609626 M-0.7748518109480105 286.7686728664726 C0.8538155470673123 217.98371337886593, -0.35578624471367637 150.33625102198317, -0.3937844215724742 -1.289856657325397 M-0.22249758700225017 287.38108006301394 C0.9173331558785672 208.0938273420351, 0.8573305965368371 129.3538793168115, 0.6946248200671215 0.21726844869358444" stroke="#000000" stroke-width="1" fill="none"></path></g><g transform="translate(10 109.8271484375) rotate(0 201.5 62.5)"><text x="0" y="18" font-family="Virgil, Segoe UI Emoji" font-size="20px" fill="#000000" text-anchor="start" style="white-space: pre;" direction="ltr">Client Reposity</text><text x="0" y="43" font-family="Virgil, Segoe UI Emoji" font-size="20px" fill="#000000" text-anchor="start" style="white-space: pre;" direction="ltr">  &lt;Interface&gt;</text><text x="0" y="68" font-family="Virgil, Segoe UI Emoji" font-size="20px" fill="#000000" text-anchor="start" style="white-space: pre;" direction="ltr"></text><text x="0" y="93" font-family="Virgil, Segoe UI Emoji" font-size="20px" fill="#000000" text-anchor="start" style="white-space: pre;" direction="ltr">  + select(ExistByClientId(long): Boolean</text><text x="0" y="118" font-family="Virgil, Segoe UI Emoji" font-size="20px" fill="#000000" text-anchor="start" style="white-space: pre;" direction="ltr"></text></g><g transform="translate(18.54913330078125 411.23663330078125) rotate(0 201 50)"><text x="0" y="18" font-family="Virgil, Segoe UI Emoji" font-size="20px" fill="#000000" text-anchor="start" style="white-space: pre;" direction="ltr">Account Repository</text><text x="0" y="43" font-family="Virgil, Segoe UI Emoji" font-size="20px" fill="#000000" text-anchor="start" style="white-space: pre;" direction="ltr">  &lt;Interface&gt;</text><text x="0" y="68" font-family="Virgil, Segoe UI Emoji" font-size="20px" fill="#000000" text-anchor="start" style="white-space: pre;" direction="ltr"></text><text x="0" y="93" font-family="Virgil, Segoe UI Emoji" font-size="20px" fill="#000000" text-anchor="start" style="white-space: pre;" direction="ltr">+ select(ExistByAccountId(long): Boolean</text></g></svg>